# xmcd
#
# Track frame offsets:
#	150
#	19095
#	34155
#	50830
#	67911
#	80839
#	97887
#	112302
#	128811
#	143007
#
# Disc length: 2105 seconds
#
# Revision: 1
# Processed by: cddbd v1.4PL0 Copyright (c) Steve Scherf et al.
# Submitted via: audiograbber 1.81.03
#
DISCID=8a08370a
DTITLE=Reid Furniss - Reid Furniss
DYEAR=1998
DGENRE=Country
TTITLE0=I Swear
TTITLE1=If There Hadn't Been You
TTITLE2=Unchained Melody
TTITLE3=Point of Rescue
TTITLE4=Dirt Road
TTITLE5=Keep It Between the Lines
TTITLE6=Silver Wings
TTITLE7=The Walk
TTITLE8=In This Life
TTITLE9=If I Had You
EXTD=
EXTT0=
EXTT1=
EXTT2=
EXTT3=
EXTT4=
EXTT5=
EXTT6=
EXTT7=
EXTT8=
EXTT9=
PLAYORDER=
